<svg width="99" height="96" viewBox="0 0 99 96" fill="none" xmlns="http://www.w3.org/2000/svg">
<ellipse cx="49.5634" cy="47.6517" rx="49.4366" ry="47.6517" fill="url(#paint0_linear_25_37)"/>
<path d="M36.3816 63.4141V57.0156L49.0378 44.6406C49.8816 43.7344 50.5847 42.8359 51.1472 41.9453C51.7097 41.0547 51.991 40.0938 51.991 39.0625C51.991 38.0312 51.8035 37.2969 51.4285 36.8594C51.0535 36.4062 50.4753 36.1797 49.6941 36.1797C48.8816 36.1797 48.2722 36.4844 47.866 37.0938C47.4753 37.6875 47.28 38.875 47.28 40.6562V41.8516H36.2878V39.4375C36.2878 36.4531 37.491 33.9219 39.8972 31.8438C42.3191 29.7656 45.616 28.7266 49.7878 28.7266C54.3191 28.7266 57.6394 29.6172 59.7488 31.3984C61.8738 33.1797 62.9441 35.5859 62.9597 38.6172C62.9753 40.9453 62.4675 42.9609 61.4363 44.6641C60.4207 46.3672 59.0925 48 57.4519 49.5625L51.9675 55.0938H63.6628V63.4141H36.3816Z" fill="white"/>
<defs>
<linearGradient id="paint0_linear_25_37" x1="49.5634" y1="0" x2="49.5634" y2="95.3034" gradientUnits="userSpaceOnUse">
<stop offset="0.0833333" stop-color="#00D8A4"/>
<stop offset="0.65625" stop-color="#B335EE"/>
</linearGradient>
</defs>
</svg>
