<svg width="99" height="96" viewBox="0 0 99 96" fill="none" xmlns="http://www.w3.org/2000/svg">
<ellipse cx="49.5634" cy="47.6517" rx="49.4366" ry="47.6517" fill="url(#paint0_linear_25_38)"/>
<path d="M36.1941 52.3359V50.5078H46.8347V51.9844C46.8503 53.2344 47.1003 54.1641 47.5847 54.7734C48.0691 55.3828 48.8035 55.6875 49.7878 55.6875C50.7566 55.6875 51.4832 55.3906 51.9675 54.7969C52.4675 54.2031 52.7175 53.1797 52.7175 51.7266C52.7175 50.3828 52.4363 49.4219 51.8738 48.8438C51.3269 48.25 50.4597 47.9531 49.2722 47.9531H45.6628V41.7188H49.1316C50.0378 41.7188 50.7488 41.4375 51.2644 40.875C51.78 40.2969 52.0378 39.4062 52.0378 38.2031C52.0378 37.0938 51.8269 36.2891 51.405 35.7891C50.9988 35.2891 50.3738 35.0391 49.53 35.0391C48.655 35.0391 48.03 35.3359 47.655 35.9297C47.2957 36.5234 47.116 37.3828 47.116 38.5078V39.5156H36.6628V38.2969C36.6472 35.0625 37.8269 32.4922 40.2019 30.5859C42.5925 28.6797 45.8269 27.7266 49.905 27.7266C54.1707 27.7266 57.3816 28.5938 59.5378 30.3281C61.7097 32.0469 62.7957 34.1875 62.7957 36.75C62.7957 38.5938 62.3894 40.1641 61.5769 41.4609C60.78 42.7578 59.5613 43.75 57.9207 44.4375V44.5312C59.4832 44.9375 60.8269 45.8125 61.9519 47.1562C63.0925 48.5 63.6628 50.2656 63.6628 52.4531C63.6628 55.5156 62.4207 58.0391 59.9363 60.0234C57.4675 61.9922 54.0613 62.9766 49.7175 62.9766C45.4363 62.9766 42.1082 62.0312 39.7332 60.1406C37.3738 58.2344 36.1941 55.6328 36.1941 52.3359Z" fill="white"/>
<defs>
<linearGradient id="paint0_linear_25_38" x1="49.5634" y1="0" x2="49.5634" y2="95.3034" gradientUnits="userSpaceOnUse">
<stop offset="0.0833333" stop-color="#00D8A4"/>
<stop offset="0.65625" stop-color="#B335EE"/>
</linearGradient>
</defs>
</svg>
