<svg width="99" height="96" viewBox="0 0 99 96" fill="none" xmlns="http://www.w3.org/2000/svg">
<ellipse cx="49.5634" cy="47.6517" rx="49.4366" ry="47.6517" fill="url(#paint0_linear_25_41)"/>
<path d="M36.1472 53.3359V51.7656L46.9753 51.8125V53.0781C46.9753 54.3125 47.2097 55.2266 47.6785 55.8203C48.1628 56.3984 48.8894 56.6875 49.8582 56.6875C50.8425 56.6875 51.5535 56.3594 51.991 55.7031C52.4285 55.0312 52.6472 53.8047 52.6472 52.0234C52.6472 50.2891 52.4207 49.1172 51.9675 48.5078C51.5144 47.8828 50.8425 47.5703 49.9519 47.5703C49.2019 47.5703 48.5847 47.75 48.1003 48.1094C47.616 48.4688 47.2332 48.9453 46.9519 49.5391L36.9675 47.2891L38.7957 29.2891H61.7878V37.6562L46.8582 37.4688L46.4363 42.2031C47.2644 41.7188 48.2097 41.3281 49.2722 41.0312C50.3503 40.7344 51.4988 40.5859 52.7175 40.5859C55.8113 40.5859 58.3894 41.5 60.4519 43.3281C62.5144 45.1562 63.5457 47.8672 63.5457 51.4609C63.5457 55.2578 62.3972 58.2969 60.1003 60.5781C57.8191 62.8438 54.4519 63.9766 49.9988 63.9766C45.7332 63.9766 42.3582 63.0312 39.8738 61.1406C37.3894 59.2344 36.1472 56.6328 36.1472 53.3359Z" fill="white"/>
<defs>
<linearGradient id="paint0_linear_25_41" x1="49.5634" y1="0" x2="49.5634" y2="95.3034" gradientUnits="userSpaceOnUse">
<stop offset="0.0833333" stop-color="#00D8A4"/>
<stop offset="0.65625" stop-color="#B335EE"/>
</linearGradient>
</defs>
</svg>
