<svg width="99" height="96" viewBox="0 0 99 96" fill="none" xmlns="http://www.w3.org/2000/svg">
<ellipse cx="49.5634" cy="47.6517" rx="49.4366" ry="47.6517" fill="url(#paint0_linear_25_42)"/>
<path d="M36.4285 49.5156V47.5938C36.4285 41.8594 38.2566 37.3203 41.9128 33.9766C45.5691 30.6328 50.8894 28.9609 57.8738 28.9609H60.0769V37.4219H58.2019C54.5144 37.4219 51.7097 38.2266 49.7878 39.8359C47.8816 41.4297 46.9285 44.6484 46.9285 49.4922L47.2332 50.1953C47.2332 53.0391 47.491 54.8438 48.0066 55.6094C48.5378 56.3594 49.2722 56.7344 50.2097 56.7344C51.116 56.7344 51.7878 56.4141 52.2253 55.7734C52.6628 55.1328 52.8816 53.7266 52.8816 51.5547C52.8816 50.1484 52.6707 49.0547 52.2488 48.2734C51.8425 47.4922 51.155 47.1016 50.1863 47.1016C49.28 47.1016 48.5613 47.4531 48.03 48.1562C47.4988 48.8594 47.2332 49.7656 47.2332 50.875L45.4285 50.8516C45.4285 47.8359 46.2488 45.4297 47.8894 43.6328C49.53 41.8359 51.616 40.9375 54.1472 40.9375C57.0847 40.9375 59.4207 41.875 61.155 43.75C62.8894 45.625 63.7566 48.2812 63.7566 51.7188C63.7566 55.5 62.5066 58.4922 60.0066 60.6953C57.5222 62.8828 54.2488 63.9766 50.1863 63.9766C46.0144 63.9766 42.6785 62.8203 40.1785 60.5078C37.6785 58.1797 36.4285 54.5156 36.4285 49.5156Z" fill="white"/>
<defs>
<linearGradient id="paint0_linear_25_42" x1="49.5634" y1="0" x2="49.5634" y2="95.3034" gradientUnits="userSpaceOnUse">
<stop offset="0.0833333" stop-color="#00D8A4"/>
<stop offset="0.65625" stop-color="#B335EE"/>
</linearGradient>
</defs>
</svg>
